<?xml version="1.0" encoding="utf-8"?>
<!-- Generator: Adobe Illustrator 24.1.0, SVG Export Plug-In . SVG Version: 6.00 Build 0)  -->
<svg version="1.1" id="Capa_1" xmlns="http://www.w3.org/2000/svg" xmlns:xlink="http://www.w3.org/1999/xlink" x="0px" y="0px"
	 viewBox="0 0 304.46 43.04" style="enable-background:new 0 0 304.46 43.04;" xml:space="preserve">
<style type="text/css">
	.st0{fill:#FFFFFF;}
	.st1{fill:#FCEE21;}
</style>
<g>
	<path class="st0" d="M46.78,18.53h7.34v9.16c-1.99,0.68-4.18,1.02-6.57,1.02c-2.62,0-4.65-0.76-6.07-2.28
		c-1.43-1.52-2.15-3.69-2.15-6.5c0-2.74,0.78-4.88,2.35-6.41c1.57-1.53,3.76-2.29,6.58-2.29c1.07,0,2.08,0.1,3.03,0.3
		c0.95,0.2,1.78,0.46,2.48,0.77l-1.45,3.6c-1.23-0.6-2.57-0.91-4.03-0.91c-1.34,0-2.38,0.44-3.11,1.31s-1.1,2.12-1.1,3.74
		c0,1.59,0.33,2.8,0.99,3.63c0.66,0.83,1.62,1.25,2.87,1.25c0.68,0,1.31-0.07,1.88-0.2v-2.66h-3.03V18.53z"/>
	<path class="st0" d="M72.01,19.62c0,2.84-0.78,5.02-2.34,6.56c-1.56,1.53-3.76,2.3-6.59,2.3h-5.5v-17h5.88
		c2.73,0,4.83,0.7,6.32,2.09C71.27,14.97,72.01,16.98,72.01,19.62z M67.25,19.78c0-1.56-0.31-2.71-0.92-3.46
		c-0.62-0.75-1.55-1.13-2.81-1.13h-1.34v9.52h1.02c1.4,0,2.42-0.41,3.07-1.22C66.92,22.69,67.25,21.45,67.25,19.78z"/>
	<path class="st0" d="M86.17,23.32c0,1.05-0.27,1.99-0.8,2.81c-0.53,0.82-1.31,1.45-2.31,1.91c-1.01,0.45-2.19,0.68-3.55,0.68
		c-1.13,0-2.08-0.08-2.85-0.24c-0.77-0.16-1.57-0.44-2.4-0.83v-4.09c0.88,0.45,1.79,0.8,2.73,1.05c0.95,0.25,1.81,0.38,2.6,0.38
		c0.68,0,1.18-0.12,1.5-0.35s0.48-0.54,0.48-0.91c0-0.23-0.06-0.44-0.19-0.61c-0.13-0.17-0.33-0.35-0.62-0.53
		c-0.28-0.18-1.04-0.54-2.26-1.09c-1.11-0.5-1.94-0.99-2.49-1.47c-0.55-0.47-0.97-1.02-1.23-1.63c-0.27-0.61-0.4-1.34-0.4-2.17
		c0-1.57,0.57-2.79,1.71-3.66c1.14-0.88,2.71-1.31,4.7-1.31c1.76,0,3.55,0.41,5.38,1.22L84.77,16c-1.59-0.73-2.96-1.09-4.12-1.09
		c-0.6,0-1.03,0.1-1.3,0.31c-0.27,0.21-0.41,0.47-0.41,0.78c0,0.33,0.17,0.63,0.52,0.9c0.34,0.26,1.28,0.74,2.81,1.44
		c1.47,0.66,2.48,1.37,3.05,2.12S86.17,22.17,86.17,23.32z"/>
	<path class="st0" d="M104.94,24.1c0,1.42-0.52,2.54-1.56,3.37c-1.04,0.83-2.43,1.24-4.16,1.24c-2.08,0-3.67-0.23-4.78-0.69v-1.19
		c1.22,0.52,2.79,0.78,4.69,0.78c1.4,0,2.5-0.32,3.32-0.96s1.23-1.48,1.23-2.52c0-0.64-0.14-1.18-0.41-1.6
		c-0.27-0.42-0.71-0.81-1.33-1.16c-0.61-0.35-1.51-0.73-2.7-1.13c-1.74-0.6-2.94-1.24-3.6-1.94c-0.66-0.69-0.99-1.62-0.99-2.77
		c0-1.27,0.5-2.31,1.49-3.11s2.28-1.2,3.84-1.2c1.6,0,3.1,0.3,4.5,0.91l-0.43,1.02c-1.41-0.59-2.76-0.88-4.05-0.88
		c-1.26,0-2.26,0.29-3,0.87c-0.74,0.58-1.12,1.37-1.12,2.37c0,0.63,0.11,1.14,0.34,1.55c0.23,0.4,0.6,0.77,1.12,1.09
		c0.52,0.32,1.41,0.71,2.67,1.16c1.33,0.46,2.32,0.9,2.99,1.33c0.67,0.43,1.15,0.92,1.46,1.47
		C104.79,22.66,104.94,23.32,104.94,24.1z"/>
	<path class="st0" d="M118.69,22.14c0,2.06-0.5,3.67-1.5,4.83c-1,1.16-2.38,1.74-4.14,1.74c-1.11,0-2.09-0.27-2.93-0.8
		c-0.84-0.54-1.49-1.3-1.94-2.3c-0.45-1-0.67-2.15-0.67-3.46c0-2.06,0.5-3.67,1.5-4.82s2.37-1.73,4.12-1.73
		c1.74,0,3.1,0.58,4.09,1.75S118.69,20.11,118.69,22.14z M108.72,22.14c0,1.74,0.38,3.09,1.15,4.06c0.76,0.97,1.84,1.46,3.24,1.46
		c1.4,0,2.47-0.49,3.24-1.46c0.76-0.97,1.15-2.33,1.15-4.06c0-1.74-0.39-3.1-1.16-4.06c-0.77-0.96-1.85-1.44-3.25-1.44
		c-1.4,0-2.47,0.48-3.23,1.44C109.1,19.04,108.72,20.39,108.72,22.14z"/>
	<path class="st0" d="M123.34,28.48h-1.15V10.39h1.15V28.48z"/>
	<path class="st0" d="M128.58,15.84v8.19c0,1.27,0.27,2.2,0.8,2.77c0.54,0.58,1.36,0.87,2.49,0.87c1.5,0,2.61-0.38,3.32-1.14
		c0.71-0.76,1.06-2,1.06-3.71v-6.98h1.14v12.64h-0.98l-0.21-1.74h-0.07c-0.82,1.32-2.28,1.98-4.38,1.98c-2.88,0-4.31-1.54-4.31-4.62
		v-8.26H128.58z"/>
	<path class="st0" d="M146.67,28.71c-1.81,0-3.22-0.57-4.24-1.71s-1.53-2.73-1.53-4.77c0-2.09,0.53-3.72,1.59-4.89
		c1.06-1.17,2.52-1.75,4.36-1.75c1.09,0,2.14,0.19,3.14,0.57l-0.31,1.02c-1.09-0.36-2.04-0.55-2.85-0.55
		c-1.55,0-2.72,0.48-3.52,1.44c-0.8,0.96-1.2,2.33-1.2,4.13c0,1.71,0.4,3.04,1.2,4c0.8,0.97,1.91,1.45,3.35,1.45
		c1.15,0,2.21-0.21,3.2-0.62v1.07C149.04,28.51,147.98,28.71,146.67,28.71z"/>
	<path class="st0" d="M152.77,12.33c0-0.74,0.24-1.12,0.73-1.12c0.24,0,0.43,0.1,0.56,0.29c0.14,0.19,0.2,0.47,0.2,0.83
		c0,0.35-0.07,0.62-0.2,0.83c-0.14,0.2-0.32,0.3-0.56,0.3C153.02,13.46,152.77,13.08,152.77,12.33z M154.08,28.48h-1.15V15.84h1.15
		V28.48z"/>
	<path class="st0" d="M168.77,22.14c0,2.06-0.5,3.67-1.5,4.83c-1,1.16-2.38,1.74-4.14,1.74c-1.11,0-2.09-0.27-2.93-0.8
		c-0.85-0.54-1.49-1.3-1.94-2.3c-0.45-1-0.67-2.15-0.67-3.46c0-2.06,0.5-3.67,1.5-4.82s2.37-1.73,4.12-1.73
		c1.74,0,3.1,0.58,4.09,1.75S168.77,20.11,168.77,22.14z M158.79,22.14c0,1.74,0.38,3.09,1.15,4.06c0.76,0.97,1.84,1.46,3.24,1.46
		c1.4,0,2.47-0.49,3.24-1.46c0.76-0.97,1.15-2.33,1.15-4.06c0-1.74-0.39-3.1-1.16-4.06c-0.77-0.96-1.85-1.44-3.25-1.44
		c-1.4,0-2.47,0.48-3.23,1.44C159.17,19.04,158.79,20.39,158.79,22.14z"/>
	<path class="st0" d="M181.08,28.48v-8.2c0-1.27-0.27-2.2-0.8-2.77c-0.54-0.58-1.36-0.87-2.49-0.87c-1.51,0-2.62,0.38-3.32,1.15
		c-0.7,0.76-1.05,2-1.05,3.72v6.98h-1.15V15.84h0.98l0.22,1.73h0.07c0.82-1.32,2.28-1.98,4.38-1.98c2.87,0,4.3,1.54,4.3,4.62v8.27
		H181.08z"/>
	<path class="st0" d="M191.42,28.71c-1.84,0-3.27-0.57-4.3-1.7s-1.54-2.72-1.54-4.76c0-2.01,0.5-3.63,1.49-4.84
		c0.99-1.21,2.33-1.82,4.01-1.82c1.49,0,2.66,0.52,3.52,1.56s1.29,2.45,1.29,4.23v0.93h-9.1c0.02,1.74,0.42,3.06,1.21,3.98
		c0.79,0.91,1.93,1.37,3.41,1.37c0.72,0,1.35-0.05,1.9-0.15s1.24-0.32,2.08-0.65v1.05c-0.71,0.31-1.37,0.52-1.98,0.63
		C192.81,28.66,192.15,28.71,191.42,28.71z M191.08,16.62c-1.22,0-2.19,0.4-2.93,1.2s-1.17,1.96-1.29,3.47h7.81
		c0-1.46-0.32-2.61-0.95-3.44C193.08,17.03,192.21,16.62,191.08,16.62z"/>
	<path class="st0" d="M207.22,25.19c0,1.13-0.43,2-1.29,2.61s-2.08,0.91-3.66,0.91c-1.69,0-3.03-0.26-4.02-0.78v-1.24
		c1.27,0.63,2.61,0.95,4.02,0.95c1.25,0,2.2-0.21,2.84-0.62c0.65-0.42,0.97-0.97,0.97-1.66c0-0.63-0.26-1.17-0.77-1.6
		c-0.52-0.43-1.36-0.86-2.54-1.28c-1.26-0.46-2.15-0.85-2.66-1.18c-0.51-0.33-0.9-0.7-1.16-1.12c-0.26-0.41-0.39-0.92-0.39-1.52
		c0-0.95,0.4-1.69,1.19-2.24c0.79-0.55,1.9-0.83,3.33-0.83c1.36,0,2.66,0.26,3.88,0.77l-0.43,1.05c-1.24-0.51-2.39-0.77-3.45-0.77
		c-1.03,0-1.85,0.17-2.45,0.51c-0.6,0.34-0.91,0.81-0.91,1.42c0,0.66,0.23,1.19,0.7,1.58c0.47,0.4,1.39,0.84,2.75,1.33
		c1.14,0.41,1.97,0.78,2.49,1.11c0.52,0.33,0.91,0.7,1.17,1.12C207.09,24.13,207.22,24.62,207.22,25.19z"/>
	<path class="st0" d="M223.64,19.91h6.27v7.76c-1.64,0.7-3.49,1.05-5.55,1.05c-2.68,0-4.74-0.76-6.17-2.27
		c-1.43-1.52-2.14-3.66-2.14-6.44c0-1.73,0.35-3.26,1.06-4.6s1.72-2.37,3.05-3.1c1.32-0.73,2.84-1.09,4.55-1.09
		c1.85,0,3.51,0.34,4.99,1.02l-0.48,1.07c-1.47-0.68-3-1.02-4.58-1.02c-2.24,0-4.02,0.69-5.33,2.08c-1.31,1.38-1.97,3.25-1.97,5.6
		c0,2.56,0.62,4.48,1.87,5.77c1.25,1.29,3.08,1.94,5.5,1.94c1.57,0,2.89-0.22,3.99-0.66v-5.98h-5.06V19.91z"/>
	<path class="st0" d="M238.85,15.6c0.54,0,1.11,0.05,1.72,0.16l-0.22,1.1c-0.53-0.13-1.07-0.2-1.64-0.2c-1.08,0-1.96,0.46-2.65,1.37
		c-0.69,0.92-1.03,2.07-1.03,3.47v6.98h-1.15V15.84h0.98l0.12,2.28h0.08c0.52-0.93,1.07-1.58,1.66-1.96S238.02,15.6,238.85,15.6z"/>
	<path class="st0" d="M250.82,28.48l-0.29-2h-0.09c-0.64,0.81-1.29,1.39-1.96,1.73c-0.67,0.34-1.46,0.51-2.38,0.51
		c-1.24,0-2.21-0.32-2.9-0.95c-0.69-0.64-1.03-1.52-1.03-2.64c0-1.23,0.51-2.19,1.54-2.87c1.03-0.68,2.51-1.04,4.46-1.08l2.41-0.07
		v-0.84c0-1.2-0.24-2.11-0.73-2.72c-0.49-0.61-1.28-0.92-2.36-0.92c-1.17,0-2.38,0.33-3.64,0.98l-0.43-1
		c1.39-0.65,2.76-0.98,4.12-0.98c1.39,0,2.42,0.36,3.11,1.08c0.69,0.72,1.03,1.84,1.03,3.37v8.41H250.82z M246.17,27.67
		c1.35,0,2.41-0.39,3.19-1.16c0.78-0.77,1.17-1.84,1.17-3.21v-1.24l-2.21,0.09c-1.78,0.09-3.04,0.36-3.8,0.83s-1.13,1.2-1.13,2.19
		c0,0.79,0.24,1.41,0.73,1.84S245.28,27.67,246.17,27.67z M245.94,13.86c0.57-0.61,1.13-1.28,1.68-1.99
		c0.55-0.72,0.93-1.26,1.13-1.63h1.64v0.2c-0.28,0.4-0.75,0.94-1.42,1.6c-0.67,0.67-1.41,1.34-2.21,2.01h-0.81V13.86z"/>
	<path class="st0" d="M260.46,16.84h-2.98v11.64h-1.15V16.84h-2.35v-0.67l2.35-0.43v-0.98c0-1.55,0.29-2.69,0.85-3.41
		c0.57-0.72,1.5-1.09,2.8-1.09c0.7,0,1.39,0.1,2.09,0.31l-0.27,1c-0.62-0.19-1.24-0.29-1.85-0.29c-0.9,0-1.54,0.27-1.91,0.8
		s-0.56,1.39-0.56,2.59v1.17h2.98V16.84z M262.74,12.33c0-0.74,0.24-1.12,0.73-1.12c0.24,0,0.43,0.1,0.56,0.29
		c0.14,0.19,0.2,0.47,0.2,0.83c0,0.35-0.07,0.62-0.2,0.83c-0.14,0.2-0.32,0.3-0.56,0.3C262.98,13.46,262.74,13.08,262.74,12.33z
		 M264.05,28.48h-1.15V15.84h1.15V28.48z"/>
	<path class="st0" d="M273.33,28.71c-1.81,0-3.22-0.57-4.24-1.71c-1.02-1.14-1.53-2.73-1.53-4.77c0-2.09,0.53-3.72,1.59-4.89
		c1.06-1.17,2.51-1.75,4.36-1.75c1.09,0,2.14,0.19,3.14,0.57l-0.31,1.02c-1.09-0.36-2.04-0.55-2.85-0.55
		c-1.55,0-2.72,0.48-3.52,1.44c-0.8,0.96-1.2,2.33-1.2,4.13c0,1.71,0.4,3.04,1.2,4c0.8,0.97,1.92,1.45,3.35,1.45
		c1.15,0,2.21-0.21,3.2-0.62v1.07C275.7,28.51,274.64,28.71,273.33,28.71z"/>
	<path class="st0" d="M287.27,28.48l-0.29-2h-0.09c-0.64,0.81-1.29,1.39-1.96,1.73c-0.67,0.34-1.46,0.51-2.38,0.51
		c-1.24,0-2.21-0.32-2.9-0.95c-0.69-0.64-1.03-1.52-1.03-2.64c0-1.23,0.51-2.19,1.54-2.87c1.03-0.68,2.51-1.04,4.46-1.08l2.41-0.07
		v-0.84c0-1.2-0.24-2.11-0.73-2.72c-0.49-0.61-1.28-0.92-2.36-0.92c-1.17,0-2.38,0.33-3.64,0.98l-0.43-1
		c1.39-0.65,2.76-0.98,4.12-0.98c1.39,0,2.42,0.36,3.11,1.08c0.69,0.72,1.03,1.84,1.03,3.37v8.41H287.27z M282.62,27.67
		c1.35,0,2.41-0.39,3.19-1.16c0.78-0.77,1.17-1.84,1.17-3.21v-1.24l-2.21,0.09c-1.78,0.09-3.04,0.36-3.8,0.83s-1.13,1.2-1.13,2.19
		c0,0.79,0.24,1.41,0.73,1.84S281.73,27.67,282.62,27.67z"/>
	<path class="st0" d="M300.05,25.19c0,1.13-0.43,2-1.29,2.61s-2.08,0.91-3.66,0.91c-1.69,0-3.03-0.26-4.02-0.78v-1.24
		c1.27,0.63,2.61,0.95,4.02,0.95c1.25,0,2.2-0.21,2.84-0.62c0.65-0.42,0.97-0.97,0.97-1.66c0-0.63-0.26-1.17-0.77-1.6
		c-0.52-0.43-1.36-0.86-2.54-1.28c-1.26-0.46-2.15-0.85-2.66-1.18c-0.51-0.33-0.9-0.7-1.16-1.12c-0.26-0.41-0.39-0.92-0.39-1.52
		c0-0.95,0.4-1.69,1.19-2.24c0.79-0.55,1.9-0.83,3.33-0.83c1.36,0,2.66,0.26,3.88,0.77l-0.43,1.05c-1.24-0.51-2.39-0.77-3.45-0.77
		c-1.03,0-1.85,0.17-2.45,0.51c-0.6,0.34-0.91,0.81-0.91,1.42c0,0.66,0.23,1.19,0.7,1.58c0.47,0.4,1.39,0.84,2.75,1.33
		c1.14,0.41,1.97,0.78,2.49,1.11c0.52,0.33,0.91,0.7,1.17,1.12C299.92,24.13,300.05,24.62,300.05,25.19z"/>
</g>
<g>
	<path d="M31.52,9.17h-0.05c-0.15-0.79-0.65-1.35-1.48-1.65c-1.65-0.58-3.31-1.17-4.96-1.75c-1.97-0.7-3.93-1.4-5.9-2.09
		c-0.29-0.1-0.62-0.16-0.95-0.16c-0.32,0-0.64,0.05-0.92,0.15c-2.01,0.7-4.02,1.42-6.04,2.13C9.61,6.38,8,6.96,6.39,7.52
		C5.38,7.88,5,8.54,4.89,9.17h0V9.2C4.85,9.38,4.85,9.56,4.85,9.73c0.03,0.79,0.02,1.61,0.02,2.4c0,0.38-0.01,0.77,0,1.15
		c0,0.2,0.01,0.39,0.02,0.58v7.44c-0.01,0.08-0.01,0.16-0.02,0.25c0,0.7,0,1.4,0,2.11c0,1.24,0,2.48-0.02,3.72
		c-0.02,0.96,0.32,1.71,1.05,2.36c3.93,3.47,7.44,6.61,10.72,9.57c0.33,0.3,0.85,0.7,1.57,0.7c0.71,0,1.24-0.4,1.57-0.7
		c3.32-3.01,6.75-6.11,10.21-9.1c1.13-0.98,1.61-2.09,1.55-3.61c0-0.07-0.01-0.13-0.01-0.2h0.02V9.17z"/>
	<path class="st1" d="M6.94,20.66c0.3,0.28,0.48,0.42,0.63,0.58c1.06,1.15,2.29,2.06,3.73,2.65c0.43,0.18,0.59,0.43,0.52,0.86
		c-0.1,0.63,0.18,1.05,0.64,1.45c1.75,1.52,3.47,3.07,5.19,4.63c0.38,0.35,0.64,0.41,1.06,0.03c1.74-1.6,3.51-3.17,5.29-4.73
		c0.38-0.34,0.4-0.63,0.19-1.03c-0.76-1.49-1.98-2.24-3.64-2.27c-1.56-0.02-3.12,0-4.68-0.01c-5.2-0.04-9.02-3.89-9.03-9.1
		c0-1.14,0.03-2.27-0.01-3.41c-0.02-0.5,0.18-0.7,0.62-0.86c3.43-1.21,6.85-2.44,10.28-3.64c0.28-0.1,0.66-0.09,0.95,0.01
		c3.43,1.2,6.85,2.43,10.28,3.63c0.45,0.16,0.61,0.38,0.61,0.87c-0.02,3.03-0.01,6.06-0.02,9.08c0,0.22-0.09,0.43-0.15,0.65
		c-0.2-0.13-0.44-0.22-0.6-0.39c-1.05-1.19-2.26-2.15-3.71-2.79c-0.42-0.18-0.59-0.42-0.53-0.86c0.01-0.05,0-0.09,0-0.14
		c-0.03-0.77,0.2-1.71-0.16-2.27c-0.34-0.53-1.29-0.68-1.98-0.99c-1.21-0.53-2.42-1.08-3.65-1.55c-0.33-0.13-0.8-0.14-1.12-0.01
		c-1.77,0.72-3.52,1.51-5.29,2.24c-0.47,0.19-0.57,0.47-0.53,0.92c0.16,2,1.79,3.56,3.8,3.6c2.08,0.05,4.17-0.07,6.24,0.14
		c4.23,0.43,7.54,4.18,7.7,8.42c0.04,1.02-0.23,1.72-1.04,2.42c-3.28,2.83-6.49,5.73-9.69,8.64c-0.5,0.45-0.79,0.45-1.28,0
		c-3.37-3.05-6.76-6.07-10.16-9.07c-0.41-0.36-0.58-0.73-0.57-1.27c0.03-1.84,0.01-3.69,0.02-5.53C6.83,21.32,6.89,21.08,6.94,20.66
		z"/>
</g>
</svg>
